<?xml version="1.0" standalone="no"?><!DOCTYPE svg PUBLIC "-//W3C//DTD SVG 1.1//EN" "http://www.w3.org/Graphics/SVG/1.1/DTD/svg11.dtd"><svg t="1533557066538" class="icon" style="" viewBox="0 0 1024 1024" version="1.1" xmlns="http://www.w3.org/2000/svg" p-id="3107" xmlns:xlink="http://www.w3.org/1999/xlink" width="200" height="200"><defs><style type="text/css"></style></defs><path d="M119.767 947.2V745.066l-7.723-2.444c-35.811-11.413-60.845-45.639-60.845-83.253V483.186c0-48.208 38.877-87.28 86.846-87.28h132.978c47.969 0 86.86 39.086 86.86 87.294v176.17c0 37.64-25.034 71.88-60.886 83.28l-7.71 2.43V947.2m-84.75-613.899c-54.78 0-99.336-44.792-99.336-99.831 0-55.053 44.556-99.831 99.336-99.831s99.336 44.778 99.336 99.83c0 55.04-44.556 99.832-99.336 99.832m631.95 131.779c-16.04 21.077-45.924 24.173-62.337 24.173-7.71 0-13.29-0.666-14.824-0.86-2.653-0.348-5.002-1.722-6.632-3.847a9.954 9.954 0 0 1-1.976-7.428c0.65-4.97 4.905-8.733 9.893-8.733 0.428 0 0.87 0.027 1.298 0.083 1.934 0.236 5.996 0.639 11.785 0.639 13.029 0 36.446-2.11 46.836-16.176l0.69-0.82c0.111-0.152 11.51-13.537 9.851-27.227-0.87-7.262-5.277-13.607-13.47-19.383-2.21-1.32-10.735-5.86-24.661-5.86-5.651 0-11.55 0.75-17.505 2.222l-0.774 0.18-0.718 0.333c-6.549 3-13.595 4.985-20.945 5.915-0.428 0.042-0.857 0.084-1.271 0.084-5.015 0-9.27-3.79-9.892-8.817-0.332-2.666 0.387-5.304 2.03-7.4 1.631-2.139 4.007-3.472 6.66-3.805 1.133-0.139 2.197-0.403 3.233-0.667l0.732-0.166 1.575-0.486a114.104 114.104 0 0 1 10.39-3.582l0.829-0.223 0.746-0.416c15.819-8.317 22.99-22.646 24.813-26.84l0.318-0.694 0.18-0.763c3.288-14.218-1.203-21.105-2.68-23.368-7.406-11.455-23.516-14.385-23.681-14.413-2.985-0.694-5.43-0.972-7.944-0.972-23.971 0-48.218 24.924-48.467 25.173a9.86 9.86 0 0 1-7.24 3.125 9.895 9.895 0 0 1-6.88-2.777c-3.992-3.819-4.158-10.178-0.359-14.205 3.04-3.207 30.727-31.435 62.794-31.435 3.923 0 7.833 0.43 11.577 1.292 4.435 0.847 25.504 5.581 36.958 23.243 5.043 7.747 9.975 21.09 4.96 40.654-0.29 0.944-1.506 4.221-4.2 9.067l-5.278 9.483 10.43 2.833c6.204 1.68 11.938 4.165 15.737 6.817 16.234 11.469 20.862 24.701 21.898 33.768 2.39 21.146-11.646 38.919-14.479 42.279m-157.349-38.96a1052.053 1052.053 0 0 0-25.573 6.345l-7.723 2.013 1.589 7.859a846.196 846.196 0 0 0 7.903 35.017c1.34 5.373-1.935 10.844-7.281 12.19a9.726 9.726 0 0 1-2.432 0.306c-4.6 0-8.58-3.138-9.685-7.622a846.209 846.209 0 0 1-7.571-33.24l-1.879-9.123-8.856 2.763c-18.582 5.79-23.97 8.637-26.416 10.261a9.89 9.89 0 0 1-5.526 1.694 9.96 9.96 0 0 1-8.345-4.485c-1.478-2.221-2.003-4.901-1.478-7.54a10.017 10.017 0 0 1 4.255-6.386c3.827-2.555 13.139-7.081 35.755-14.024l7.005-2.152-1.147-7.262c-2.708-17.23-3.592-27.116-3.606-27.214-0.248-2.68 0.567-5.29 2.28-7.359a9.917 9.917 0 0 1 6.77-3.568h0.083c5.982 0 10.32 3.985 10.776 9.095 0.014 0.166 0.774 8.053 2.819 21.66l1.395 9.247 9.008-2.319c9.837-2.527 18.264-4.54 23.349-5.734a9.508 9.508 0 0 1 2.252-0.264 9.954 9.954 0 0 1 9.754 7.776c1.257 5.387-2.1 10.802-7.475 12.065m-140.99 120.076a9.875 9.875 0 0 1-6.77 3.554l-0.912 0.042c-5.112 0-9.478-4.04-9.934-9.164-4.117-46.847-15.736-90.279-24.758-118.465l-5.568-17.356-9.588 15.468c-12.517 20.16-26.913 33.712-27.521 34.267a9.915 9.915 0 0 1-6.798 2.694c-2.818 0-5.415-1.138-7.336-3.207-3.744-4.055-3.523-10.428 0.511-14.19 3.565-3.416 34.471-33.768 39.003-68.036 0.594-4.415 4.075-7.97 8.483-8.608 0.455-0.07 0.925-0.097 1.395-0.097 3.951 0 7.557 2.318 9.16 5.942 1.423 3.194 34.982 79.24 42.94 169.81a9.982 9.982 0 0 1-2.308 7.346M902.21 165.642H354.175l68.665 522.816h479.37c7.239 0 13.125-5.929 13.125-13.205V178.818c0-7.262-5.886-13.176-13.126-13.176" p-id="3108"></path></svg>