<?xml version="1.0" standalone="no"?><!DOCTYPE svg PUBLIC "-//W3C//DTD SVG 1.1//EN" "http://www.w3.org/Graphics/SVG/1.1/DTD/svg11.dtd"><svg t="1533556857060" class="icon" style="" viewBox="0 0 1024 1024" version="1.1" xmlns="http://www.w3.org/2000/svg" p-id="2425" xmlns:xlink="http://www.w3.org/1999/xlink" width="200" height="200"><defs><style type="text/css"></style></defs><path d="M772.22779 487.469304c0 23.752983 21.88238 317.174779 21.88238 380.943129 0 44.74918-43.937698 89.648786-284.507776 89.648786-240.591567 0-284.530288-48.875151-284.530288-89.648786 0-40.733727 21.883403-359.830275 21.883403-380.943129 0-21.125133-175.069271-1.25048-175.069271-44.825928 0-111.008256 23.934109-248.593821 65.651232-291.313785 37.868469-38.788421 104.758925-68.107167 191.887308-84.809571-11.476379 183.552479 77.810157 315.783083 162.567539 420.906306l-10.599406 0c-8.698103 0-15.749706 7.052626-15.749706 15.760962l0 146.96519c0 8.697079 7.052626 15.749706 15.749706 15.749706l56.033178 0c8.698103 0 15.751752-7.05365 15.751752-15.749706l0-95.268784-44.493354 44.630477-42.8489-44.824905 87.341231 0 0-51.501978c0-8.710382-7.05365-15.760962-15.751752-15.760962l-5.384637 0c84.585467-104.888885 173.637666-236.798171 162.630984-419.73155 77.683267 16.307408 148.781558 44.505633 186.994881 83.634816 43.38102 44.429909 65.649186 180.711781 65.649186 291.314809C947.31855 487.074308 772.22779 463.705064 772.22779 487.469304L772.22779 487.469304zM512.039909 465.297328C475.473085 430.312536 330.857407 235.177254 359.645057 64.105017c48.874127 36.126802 81.121576 64.807005 149.95836 64.807005 70.39528 0 102.3429-31.404244 153.183821-67.220984 0.470721 0.073678 0.918929 0.182149 1.36816 0.254803C694.500521 233.531777 548.731576 430.173366 512.039909 465.297328L512.039909 465.297328z" p-id="2426"></path></svg>