<?xml version="1.0" standalone="no"?><!DOCTYPE svg PUBLIC "-//W3C//DTD SVG 1.1//EN" "http://www.w3.org/Graphics/SVG/1.1/DTD/svg11.dtd"><svg t="1532506931063" class="icon" style="" viewBox="0 0 1036 1024" version="1.1" xmlns="http://www.w3.org/2000/svg" p-id="9424" xmlns:xlink="http://www.w3.org/1999/xlink" width="202.34375" height="200"><defs><style type="text/css"></style></defs><path d="M425.54368 195.8144h170.07104c14.16704 0 25.49248-14.17216 25.49248-28.34432 0-17.02912-11.32544-28.34944-25.49248-28.34944H425.54368c-14.17216 0-25.49248 14.17216-25.49248 28.34944 0.00512 17.02912 11.32032 28.34432 25.49248 28.34432z m255.104 31.19616c17.02912 0 28.34944-11.31008 28.34944-22.6304V113.63328c0-14.17216-11.32032-22.6304-28.34944-22.6304s-28.3392 11.3152-28.3392 22.6304v90.63936c0 14.17728 14.16192 22.73792 28.3392 22.73792z" fill="#42B983" p-id="9425"></path><path d="M782.60736 136.2688h-17.02912c-17.024 0-28.34432 14.17216-28.34432 28.34944 0 17.02912 14.17216 28.34432 28.34432 28.34432h17.02912c53.8368 0 102.0672 42.51648 102.0672 99.20512v478.8992c0 53.83168-45.36832 99.21024-102.0672 99.21024H249.76384c-53.83168 0-102.06208-45.37856-102.06208-99.21024V295.01952c0-53.83168 45.36832-99.20512 99.20512-99.20512 17.02912 0 28.34944-14.17216 28.34944-28.34432 0-17.02912-11.32032-28.34944-28.34944-28.34944-84.92544-2.85696-155.78624 68.00384-155.78624 155.89376v478.8992c0 87.8848 70.86592 158.75072 158.75072 158.75072h535.5776c87.89504 0 158.75584-70.86592 158.75584-158.75072V295.01952c-2.85184-87.88992-73.70752-158.75072-161.59744-158.75072z" fill="#42B983" p-id="9426"></path><path d="M340.51072 227.01056c17.02912 0 28.34432-11.31008 28.34432-22.6304V113.63328c0-14.17216-14.17216-22.6304-28.34432-22.6304-17.02912 0-28.34944 11.3152-28.34944 22.6304v90.63936c0.00512 14.17728 14.17728 22.73792 28.34944 22.73792zM552.96 531.81952c6.66624 19.00032 12.99968 33.50016 19.00032 43.49952 8.00256 15.3344 20.16256 32.9984 36.50048 53.00224 42.99776 47.3344 90.1632 75.49952 141.50144 84.50048-12.33408 16.6656-22.5024 38.16448-30.49984 64.50176-90.33728-34.66752-156.49792-92.49792-198.5024-173.50144-11.66848 30.6688-29.50144 58.16832-53.49888 82.49856-32 29.99808-80.9984 60.49792-147.00032 91.49952-12.99968-26.67008-25.4976-47.49824-37.49888-62.49984 30.66368-7.66976 56.00256-16.9984 76.00128-28.00128 22.00064-13.33248 40.66304-26.66496 56.00256-40.00256 31.0016-28.99968 50.49856-67.50208 58.50112-115.50208-83.99872 0.3328-144.17408 1.17248-180.50048 2.49856V473.82016l185.00096 2.00192c2.66752-45.32736 3.99872-73.4976 3.99872-84.50048l-167.5008 1.50016V331.82208c136.33024 3.00032 269.16352 3.00032 398.49984 0v60.99968l-166.99904-1.50016-4.50048 84.50048 195.99872-2.00192v60.49792l-63.0016-2.49856H552.96z" fill="#42B983" p-id="9427"></path></svg>