<?xml version="1.0" standalone="no"?><!DOCTYPE svg PUBLIC "-//W3C//DTD SVG 1.1//EN" "http://www.w3.org/Graphics/SVG/1.1/DTD/svg11.dtd"><svg t="1540452736835" class="icon" style="" viewBox="0 0 1098 1024" version="1.1" xmlns="http://www.w3.org/2000/svg" p-id="1258" xmlns:xlink="http://www.w3.org/1999/xlink" width="214.453125" height="200"><defs><style type="text/css"></style></defs><path d="M338.870857 512q-92.562286 2.852571-151.442286 73.142857l-76.580571 0q-46.848 0-78.848-23.149714t-32-67.730286q0-201.728 70.838857-201.728 3.437714 0 24.868571 11.995429t55.698286 24.283429 67.986286 12.288q38.290286 0 75.995429-13.129143-2.852571 21.138286-2.852571 37.705143 0 79.433143 46.299429 146.285714zM950.857143 875.995429q0 68.571429-41.728 108.288t-110.848 39.716571l-499.419429 0q-69.156571 0-110.848-39.716571t-41.728-108.288q0-30.281143 2.011429-59.136t8.009143-62.281143 15.140571-61.988571 24.576-55.698286 35.437714-46.299429 48.859429-30.573714 63.707429-11.446857q5.705143 0 24.576 12.288t41.728 27.428571 61.147429 27.428571 77.129143 12.288 77.129143-12.288 61.147429-27.428571 41.728-27.428571 24.576-12.288q34.852571 0 63.707429 11.446857t48.859429 30.573714 35.437714 46.299429 24.576 55.698286 15.140571 61.988571 8.009143 62.281143 2.011429 59.136zM365.714286 146.285714q0 60.562286-42.861714 103.424t-103.424 42.861714-103.424-42.861714-42.861714-103.424 42.861714-103.424 103.424-42.861714 103.424 42.861714 42.861714 103.424zM768 365.714286q0 90.843429-64.292571 155.136t-155.136 64.292571-155.136-64.292571-64.292571-155.136 64.292571-155.136 155.136-64.292571 155.136 64.292571 64.292571 155.136zM1097.142857 494.299429q0 44.580571-32 67.730286t-78.848 23.149714l-76.580571 0q-58.843429-70.290286-151.442286-73.142857 46.299429-66.852571 46.299429-146.285714 0-16.566857-2.852571-37.705143 37.705143 13.129143 75.995429 13.129143 33.718857 0 67.986286-12.288t55.698286-24.283429 24.868571-11.995429q70.838857 0 70.838857 201.728zM1024 146.285714q0 60.562286-42.861714 103.424t-103.424 42.861714-103.424-42.861714-42.861714-103.424 42.861714-103.424 103.424-42.861714 103.424 42.861714 42.861714 103.424z" p-id="1259"></path></svg>