<?xml version="1.0" standalone="no"?><!DOCTYPE svg PUBLIC "-//W3C//DTD SVG 1.1//EN" "http://www.w3.org/Graphics/SVG/1.1/DTD/svg11.dtd"><svg t="1532513272038" class="icon" style="" viewBox="0 0 1024 1024" version="1.1" xmlns="http://www.w3.org/2000/svg" p-id="17775" xmlns:xlink="http://www.w3.org/1999/xlink" width="60" height="60"><defs><style type="text/css"></style></defs><path d="M511.6 63.9c247.5 0 448.2 200.7 448.2 448.2S759.1 960.3 511.6 960.3C264.1 960.2 63.5 759.6 63.5 512c0-247.5 200.6-448.1 448.1-448.1z" fill="#FF8E90" p-id="17776"></path><path d="M511.6 63.9c247.5 0 448.2 200.7 448.2 448.2S759.1 960.3 511.6 960.3C264.1 960.2 63.5 759.6 63.5 512c0-247.5 200.6-448.1 448.1-448.1z" fill="#FF8E90" p-id="17777"></path><path d="M751.3 728.5c-109.4-27.6-144.7-48.9-150.7-57.9l-88.9 96.5-88.3-95.9c-25.6 28.1-107 44.2-176.6 66.7-41.6 13.4-59.4 47.9-67.1 75.1 82 90.4 200.4 147.2 332 147.2 132.2 0 251-57.2 333-148.3-12.7-45.1-49-72.2-93.4-83.4zM287.6 667.4s2.8 0.2 5.6 0h94.4c26.2 0 48.4-18.9 53-44.3 25.1 23.2 50.6 37.2 70.2 37.2 19.2 0 42.5-12.9 66.1-36.9 4.7 25.3 26.8 44 52.9 44h109.5c-50.7-106.5-27.3-235.5-30.1-265.3-13.2-139.7-85.3-207.2-198.7-207.2-134.9 0-215.6 103.1-194.9 232.3 5.8 36.3 18.4 107.6-31 240.1 2 0.1 3 0.1 3 0.1z" fill="#FFE5E5" p-id="17778"></path></svg>