<?xml version="1.0" standalone="no"?><!DOCTYPE svg PUBLIC "-//W3C//DTD SVG 1.1//EN" "http://www.w3.org/Graphics/SVG/1.1/DTD/svg11.dtd"><svg t="1532506600835" class="icon" style="" viewBox="0 0 1024 1024" version="1.1" xmlns="http://www.w3.org/2000/svg" p-id="1605" xmlns:xlink="http://www.w3.org/1999/xlink" width="200" height="200"><defs><style type="text/css"></style></defs><path d="M822.276658 170.174061h-100.687434v97.920327c0 29.88111-24.221616 54.103942-54.103942 54.103942s-54.103942-24.221616-54.103942-54.103942V170.174061H411.022476v97.920327c0 29.88111-24.221616 54.103942-54.103943 54.103942s-54.103942-24.221616-54.103942-54.103942V170.174061H201.724558c-68.261801 0-124.109934 55.848132-124.109934 124.108717v496.439734c0 68.260585 55.848132 124.11115 124.109934 124.11115h620.5521c68.258152 0 124.108717-55.848132 124.108718-124.11115V294.282778c0.001216-68.260585-55.849348-124.108717-124.108718-124.108717z m62.053751 620.550884c0 34.128468-27.925282 62.05375-62.053751 62.053751H201.724558c-34.129684 0-62.054967-27.925282-62.054967-62.053751V418.392712h744.660818v372.332233z" fill="#36A3F7" p-id="1606"></path><path d="M387.581732 263.376318c0 17.134172-13.890271 31.024443-31.024443 31.024442-17.134172 0-31.023226-13.890271-31.023226-31.024442V139.141104c0.001216-17.132956 13.889054-31.023226 31.024442-31.023226 17.134172 0 31.024443 13.890271 31.024443 31.023226l-0.001216 124.235214zM698.149697 263.376318c0 17.134172-13.889054 31.024443-31.024443 31.024442-17.134172 0-31.024443-13.890271-31.024443-31.024442V139.141104c0-17.132956 13.890271-31.023226 31.024443-31.023226 17.135388 0 31.024443 13.890271 31.024443 31.023226v124.235214z" fill="#36A3F7" p-id="1607"></path><path d="M377.721099 502.66603c0-19.453677 11.676585-29.670689 35.029754-30.651035h213.097674c23.354386 0 35.030971 10.719348 35.03097 32.110608v255.425293c-0.981563 21.392476-11.198575 33.069061-30.652251 35.030971-22.394717 0.957237-44.288313-1.96191-65.68079-8.758655-11.676585-4.879839-16.054088-12.177705-13.134941-21.893596 3.877599-11.676585 12.155811-17.011325 24.812742-16.054088 2.916714 0.981563 6.794313 1.960693 11.676585 2.919146 19.453677 4.879839 28.690342 2.91793 27.730673-5.839509v-59.841281h-195.582796c-4.881056 45.74667-13.638494 80.276521-26.272316 103.628474-8.757439 11.676585-19.954797 15.552968-33.571398 11.676585-11.676585-5.837076-14.116505-15.576078-7.297865-29.191462 16.534531-31.130262 24.812743-81.734877 24.812743-151.794386v-116.767065z m43.787193 96.330609v45.246766h194.122006v-45.246766H421.508292z m14.595731-86.114814c-9.739002 0-14.116505 5.838292-13.136158 17.513661v27.733106h192.662433v-27.731889c0-11.676585-3.898276-17.513661-11.676584-17.513661H436.104023z" fill="#36A3F7" p-id="1608"></path></svg>