<?xml version="1.0" standalone="no"?><!DOCTYPE svg PUBLIC "-//W3C//DTD SVG 1.1//EN" "http://www.w3.org/Graphics/SVG/1.1/DTD/svg11.dtd"><svg t="1530599840559" class="icon" style="" viewBox="0 0 1024 1024" version="1.1" xmlns="http://www.w3.org/2000/svg" p-id="1722" xmlns:xlink="http://www.w3.org/1999/xlink" width="200" height="200"><defs><style type="text/css"></style></defs><path d="M699.6 63.9h-379c-57.1 0-103.4 46.3-103.4 103.4v689.1c0 57.1 46.3 103.4 103.4 103.4h379c57.1 0 103.4-46.3 103.4-103.4V167.3c-0.1-57.1-46.3-103.4-103.4-103.4z m-224 34.4h68.9c9.5 0 17.2 7.7 17.2 17.2s-7.7 17.2-17.2 17.2h-68.9c-9.5 0-17.2-7.7-17.2-17.2s7.7-17.2 17.2-17.2zM510 917.6c-24.3 0-44-19.7-44-44s19.7-44 44-44 44 19.7 44 44c0.1 24.3-19.6 44-44 44z m224-147.4c0 9.5-7.7 17.2-17.2 17.2H303.3c-9.5 0-17.2-7.7-17.2-17.2V184.4c0-9.5 7.7-17.2 17.2-17.2h413.5c9.5 0 17.2 7.7 17.2 17.2v585.8z" fill="#ffffff" p-id="1723"></path></svg>