<?xml version="1.0" standalone="no"?><!DOCTYPE svg PUBLIC "-//W3C//DTD SVG 1.1//EN" "http://www.w3.org/Graphics/SVG/1.1/DTD/svg11.dtd"><svg t="1532417976728" class="icon" style="" viewBox="0 0 1024 1024" version="1.1" xmlns="http://www.w3.org/2000/svg" p-id="2337" xmlns:xlink="http://www.w3.org/1999/xlink" width="200" height="200"><defs><style type="text/css"></style></defs><path d="M280.380952 260.632381c45.592381-48.518095 118.979048-50.95619 178.956191-34.377143 84.601905 31.207619 106.057143 130.438095 106.057143 210.895238-3.413333 75.337143-115.078095 135.070476-67.047619 213.089524 70.948571 58.758095 167.740952 73.874286 244.297143 125.318095l10.727619 50.468572c-226.742857 6.582857-453.729524 1.219048-680.472381 2.925714 0.24381-18.041905 0.975238-53.881905 1.219047-71.68 77.775238-38.521905 170.666667-55.344762 232.106667-119.954286 11.215238-67.779048-47.299048-119.710476-78.750476-173.348571 3.169524-69.485714-2.438095-151.161905 52.906666-203.337143zM879.664762 414.47619H950.857143c0 81.432381 0 162.620952-0.24381 243.809524-17.554286 0-52.419048-0.24381-69.973333-0.243809a3120.761905 3120.761905 0 0 1-0.975238-243.565715zM782.384762 463.481905h70.217143c0.731429 64.853333 0.731429 129.462857 0.243809 194.31619-17.310476 0-52.175238 0.24381-69.485714 0.24381-3.413333-64.853333-3.657143-129.706667-0.975238-194.56z" p-id="2338" fill="#40C9C6"></path><path d="M683.398095 513.950476c17.798095-0.487619 53.638095-1.706667 71.436191-2.194286 0.487619 49.005714 0.487619 97.767619 0 146.773334-17.554286-0.487619-52.906667-1.706667-70.704762-2.438095-0.487619-47.299048-0.731429-94.598095-0.731429-142.140953zM586.118095 538.087619c17.798095-0.24381 53.394286-0.975238 71.436191-1.462857-0.487619 40.71619-0.487619 81.432381-0.487619 122.148571-17.798095-0.975238-53.394286-2.438095-71.192381-3.169523 0.487619-39.253333 0.487619-78.262857 0.243809-117.516191z" p-id="2339" fill="#40C9C6"></path></svg>